<svg width="639" height="93" viewBox="0 0 639 93" fill="none" xmlns="http://www.w3.org/2000/svg">
<path d="M5.00679e-05 92.16V15.36C5.00679e-05 12.544 0.682717 9.984 2.04805 7.68C3.41338 5.29067 5.24805 3.41333 7.55205 2.048C9.94138 0.682666 12.5441 0 15.3601 0H76.8001C79.6161 0 82.1761 0.682666 84.4801 2.048C86.8694 3.41333 88.7467 5.29067 90.1121 7.68C91.4774 9.984 92.1601 12.544 92.1601 15.36V92.16H81.7921V58.496H10.3681V92.16H5.00679e-05ZM10.3681 48.128H81.7921V15.36C81.7921 13.9947 81.2801 12.8427 80.2561 11.904C79.3174 10.88 78.1654 10.368 76.8001 10.368H15.3601C13.9947 10.368 12.8001 10.88 11.7761 11.904C10.8374 12.8427 10.3681 13.9947 10.3681 15.36V48.128ZM143.096 92.16V10.368H102.136V0H194.296V10.368H153.464V92.16H143.096ZM281.693 92.16L251.613 56.32H265.181L295.389 92.032V92.16H281.693ZM203.869 92.16V0.127998H280.669C283.485 0.127998 286.045 0.853333 288.349 2.304C290.738 3.66933 292.616 5.504 293.981 7.808C295.346 10.112 296.029 12.672 296.029 15.488V42.496C296.029 45.312 295.346 47.872 293.981 50.176C292.616 52.48 290.738 54.3573 288.349 55.808C286.045 57.1733 283.485 57.856 280.669 57.856H214.237V92.16H203.869ZM219.229 47.36H280.669C282.034 47.36 283.186 46.8907 284.125 45.952C285.149 45.0133 285.661 43.8613 285.661 42.496V15.488C285.661 14.1227 285.149 12.9707 284.125 12.032C283.186 11.008 282.034 10.496 280.669 10.496H219.229C217.864 10.496 216.669 11.008 215.645 12.032C214.706 12.9707 214.237 14.1227 214.237 15.488V42.496C214.237 43.8613 214.706 45.0133 215.645 45.952C216.669 46.8907 217.864 47.36 219.229 47.36ZM324.598 92.16C321.782 92.16 319.179 91.4773 316.79 90.112C314.486 88.7467 312.651 86.912 311.286 84.608C309.921 82.2187 309.238 79.616 309.238 76.8V15.36C309.238 12.544 309.921 9.984 311.286 7.68C312.651 5.29067 314.486 3.41333 316.79 2.048C319.179 0.682666 321.782 0 324.598 0H386.038C388.854 0 391.414 0.682666 393.718 2.048C396.107 3.41333 397.985 5.29067 399.35 7.68C400.715 9.984 401.398 12.544 401.398 15.36V76.8C401.398 79.616 400.715 82.2187 399.35 84.608C397.985 86.912 396.107 88.7467 393.718 90.112C391.414 91.4773 388.854 92.16 386.038 92.16H324.598ZM324.598 81.792H386.038C387.403 81.792 388.555 81.3227 389.494 80.384C390.518 79.36 391.03 78.1653 391.03 76.8V15.36C391.03 13.9947 390.518 12.8427 389.494 11.904C388.555 10.88 387.403 10.368 386.038 10.368H324.598C323.233 10.368 322.038 10.88 321.014 11.904C320.075 12.8427 319.606 13.9947 319.606 15.36V76.8C319.606 78.1653 320.075 79.36 321.014 80.384C322.038 81.3227 323.233 81.792 324.598 81.792ZM415.494 92.16V0H429.702L497.286 80.384V0H507.654V92.16H493.446L425.862 11.776V92.16H415.494ZM523.274 92.16V0H533.77V92.16H523.274ZM548.089 92.16V92.032L586.745 46.08L548.089 0.127998V0H561.401L593.529 38.016L625.529 0H638.841V0.127998L600.185 46.08L638.969 92.032V92.16H625.529L593.529 54.144L561.401 92.16H548.089Z" fill="#FF7F50"/>
</svg>
